<svg width="256" height="197" viewBox="0 0 256 197" fill="none" xmlns="http://www.w3.org/2000/svg">
<ellipse cx="138.829" cy="186" rx="102" ry="11" fill="#E3BDD1"/>
<path d="M218.654 30.0142H181.206V55.9415H218.654V30.0142Z" fill="url(#paint0_linear)"/>
<path d="M197.955 41.458H193.672V48.2679H197.955V41.458Z" fill="#FDFCFF"/>
<path d="M198.668 41.458C200.065 39.5106 201.245 37.4165 202.187 35.2129C202.486 34.5651 204.013 35.1132 203.233 37.8538C203.032 38.7097 202.749 39.544 202.387 40.3452H206.702C206.838 40.3456 206.969 40.3918 207.074 40.4763C207.18 40.5607 207.253 40.6785 207.283 40.8103C207.599 42.1723 208.246 46.1917 205.441 48.1516C205.333 48.2246 205.206 48.265 205.076 48.2679H198.668V41.458Z" fill="#FDFCFF"/>
<path d="M137.434 14.1523H84.9313V128.924H137.434V14.1523Z" fill="url(#paint1_linear)"/>
<g style="mix-blend-mode:multiply" opacity="0.6">
<g style="mix-blend-mode:multiply" opacity="0.6">
<path d="M71.8843 128.924H84.9313V14.1523L71.8843 18.4874V128.924Z" fill="#A08652"/>
</g>
</g>
<path d="M205.873 41.2588H162.947V68.9634H205.873V41.2588Z" fill="url(#paint2_linear)"/>
<g style="mix-blend-mode:multiply" opacity="0.6">
<g style="mix-blend-mode:multiply" opacity="0.6">
<path d="M152.274 68.9634H162.947V41.2588L152.274 42.3052V68.9634Z" fill="#A08652"/>
</g>
</g>
<path d="M71.8843 128.924H84.9313V14.1523L71.8843 18.4874V128.924Z" fill="url(#paint3_linear)"/>
<path d="M152.274 68.9634H162.947V41.2588L152.274 42.3052V68.9634Z" fill="url(#paint4_linear)"/>
<g style="mix-blend-mode:multiply" opacity="0.6">
<g style="mix-blend-mode:multiply" opacity="0.6">
<path d="M71.8843 128.924H84.9313V14.1523L71.8843 18.4874V128.924Z" fill="#A08652"/>
</g>
</g>
<path d="M71.8843 128.924H84.9313V14.1523L71.8843 18.4874V128.924Z" fill="url(#paint5_linear)"/>
<path d="M152.274 68.9634H162.947V41.2588L152.274 42.3052V68.9634Z" fill="url(#paint6_linear)"/>
<path d="M228.796 66.5217H129.367V129.638H228.796V66.5217Z" fill="url(#paint7_linear)"/>
<path d="M104.651 129.638H129.367V66.5217L104.651 68.9134V129.638Z" fill="url(#paint8_linear)"/>
<path d="M66.4895 133.109C65.7023 133.11 64.9361 132.855 64.307 132.382C63.678 131.908 63.2204 131.242 63.0038 130.485L27.8136 7.39213H4.2096C3.24989 7.39213 2.32946 7.01063 1.65084 6.33159C0.972218 5.65255 0.591003 4.7316 0.591003 3.77129C0.591003 2.81098 0.972218 1.88998 1.65084 1.21094C2.32946 0.531894 3.24989 0.150392 4.2096 0.150392H30.5524C31.3375 0.149759 32.1013 0.405812 32.7275 0.879538C33.3538 1.35326 33.8082 2.01875 34.0216 2.77471L69.9588 128.492C70.2208 129.414 70.1079 130.403 69.6447 131.243C69.1815 132.083 68.4054 132.706 67.4855 132.976C67.16 133.06 66.8256 133.105 66.4895 133.109Z" fill="url(#paint9_linear)"/>
<path d="M243.42 67.0532H47.9816V70.6741H243.42V67.0532Z" fill="url(#paint10_linear)"/>
<path d="M213.888 36.9695L193.108 131.306L196.642 132.085L217.422 37.7489L213.888 36.9695Z" fill="url(#paint11_linear)"/>
<path d="M78.4253 36.9266L74.9028 37.7559L97.0821 132.08L100.604 131.25L78.4253 36.9266Z" fill="url(#paint12_linear)"/>
<path d="M125.931 37.4055H122.312V131.73H125.931V37.4055Z" fill="url(#paint13_linear)"/>
<path d="M171.197 37.4055H167.578V131.73H171.197V37.4055Z" fill="url(#paint14_linear)"/>
<path d="M235.685 98.9265H56.6463V102.547H235.685V98.9265Z" fill="url(#paint15_linear)"/>
<path d="M194.9 169.666H59.7171C54.3578 169.452 49.2893 167.17 45.5732 163.3C41.8571 159.43 39.7817 154.271 39.7817 148.904C39.7817 143.537 41.8571 138.379 45.5732 134.509C49.2893 130.638 54.3578 128.357 59.7171 128.143H78.3082C79.2679 128.143 80.1883 128.524 80.8669 129.203C81.5455 129.882 81.9268 130.803 81.9268 131.763C81.9268 132.724 81.5455 133.645 80.8669 134.324C80.1883 135.003 79.2679 135.384 78.3082 135.384H59.7171C56.1292 135.384 52.6882 136.811 50.1512 139.349C47.6141 141.888 46.1888 145.331 46.1888 148.921C46.1888 152.511 47.6141 155.954 50.1512 158.493C52.6882 161.032 56.1292 162.458 59.7171 162.458H194.884C195.844 162.458 196.764 162.839 197.443 163.518C198.121 164.197 198.502 165.118 198.502 166.079C198.502 167.039 198.121 167.96 197.443 168.639C196.764 169.318 195.844 169.7 194.884 169.7L194.9 169.666Z" fill="url(#paint16_linear)"/>
<path d="M103.596 171.492C106.118 161.154 99.788 150.729 89.4572 148.205C79.1264 145.681 68.7069 152.015 66.1847 162.352C63.6625 172.69 69.9926 183.116 80.3235 185.639C90.6543 188.163 101.074 181.829 103.596 171.492Z" fill="url(#paint17_linear)"/>
<path d="M84.9312 174.55C89.1115 174.55 92.5004 171.159 92.5004 166.976C92.5004 162.793 89.1115 159.402 84.9312 159.402C80.7508 159.402 77.362 162.793 77.362 166.976C77.362 171.159 80.7508 174.55 84.9312 174.55Z" fill="white"/>
<path style="mix-blend-mode:overlay" d="M175.237 181.129C183.074 173.936 183.599 161.748 176.411 153.907C169.222 146.065 157.042 145.54 149.205 152.733C141.369 159.926 140.843 172.113 148.032 179.955C155.22 187.796 167.4 188.322 175.237 181.129Z" fill="url(#paint18_linear)"/>
<path d="M175.237 181.129C183.074 173.936 183.599 161.748 176.411 153.907C169.222 146.065 157.042 145.54 149.205 152.733C141.369 159.926 140.843 172.113 148.032 179.955C155.22 187.796 167.4 188.322 175.237 181.129Z" fill="url(#paint19_linear)"/>
<path d="M162.217 174.55C166.397 174.55 169.786 171.159 169.786 166.976C169.786 162.793 166.397 159.402 162.217 159.402C158.036 159.402 154.648 162.793 154.648 166.976C154.648 171.159 158.036 174.55 162.217 174.55Z" fill="white"/>
<path d="M230.937 135.351H66.9544C66.1678 135.35 65.4029 135.094 64.7744 134.62C64.1458 134.147 63.6877 133.483 63.4686 132.727L36.6776 38.4018C36.5268 37.8625 36.5025 37.2956 36.6066 36.7454C36.7107 36.1951 36.9404 35.6763 37.2777 35.2294C37.6151 34.7825 38.051 34.4196 38.5515 34.169C39.0521 33.9184 39.6037 33.7867 40.1634 33.7844H252.267C252.809 33.786 253.344 33.9095 253.832 34.1456C254.32 34.3817 254.748 34.7244 255.086 35.1485C255.424 35.5726 255.662 36.0673 255.783 36.5959C255.905 37.1245 255.905 37.6735 255.786 38.2025L234.539 132.528C234.362 133.344 233.905 134.074 233.247 134.589C232.589 135.105 231.772 135.374 230.937 135.351ZM69.6766 128.109H228.032L247.653 41.0262H44.9439L69.6766 128.109Z" fill="url(#paint20_linear)"/>
<defs>
<linearGradient id="paint0_linear" x1="181.206" y1="42.9861" x2="218.654" y2="42.9861" gradientUnits="userSpaceOnUse">
<stop stop-color="#DF59A5"/>
<stop offset="1" stop-color="#A426F2"/>
</linearGradient>
<linearGradient id="paint1_linear" x1="20718.6" y1="33952" x2="20718.6" y2="40437.7" gradientUnits="userSpaceOnUse">
<stop stop-color="#DF59A5"/>
<stop offset="1" stop-color="#A426F2"/>
</linearGradient>
<linearGradient id="paint2_linear" x1="18926.5" y1="8233.51" x2="18926.5" y2="9799.1" gradientUnits="userSpaceOnUse">
<stop stop-color="#DF59A5"/>
<stop offset="1" stop-color="#A426F2"/>
</linearGradient>
<linearGradient id="paint3_linear" x1="71.8843" y1="71.5379" x2="84.9313" y2="71.5379" gradientUnits="userSpaceOnUse">
<stop stop-color="#F1C88D"/>
<stop offset="0.27" stop-color="#EEC58A"/>
<stop offset="0.47" stop-color="#E6BB82"/>
<stop offset="0.65" stop-color="#D7AB73"/>
<stop offset="0.81" stop-color="#C2955F"/>
<stop offset="0.97" stop-color="#A87845"/>
<stop offset="1" stop-color="#A1703E"/>
</linearGradient>
<linearGradient id="paint4_linear" x1="4611.12" y1="8783.45" x2="4679.75" y2="8783.45" gradientUnits="userSpaceOnUse">
<stop stop-color="#F1C88D"/>
<stop offset="0.27" stop-color="#EEC58A"/>
<stop offset="0.47" stop-color="#E6BB82"/>
<stop offset="0.65" stop-color="#D7AB73"/>
<stop offset="0.81" stop-color="#C2955F"/>
<stop offset="0.97" stop-color="#A87845"/>
<stop offset="1" stop-color="#A1703E"/>
</linearGradient>
<linearGradient id="paint5_linear" x1="48.7283" y1="5.54866" x2="126.226" y2="177.686" gradientUnits="userSpaceOnUse">
<stop stop-color="#28067E"/>
<stop offset="0.16" stop-color="#2D0A83"/>
<stop offset="0.35" stop-color="#3A1691"/>
<stop offset="0.55" stop-color="#502AA9"/>
<stop offset="0.77" stop-color="#6E46CA"/>
<stop offset="0.99" stop-color="#956AF4"/>
<stop offset="1" stop-color="#986CF7"/>
</linearGradient>
<linearGradient id="paint6_linear" x1="4408.43" y1="7415.95" x2="6114.46" y2="8876.72" gradientUnits="userSpaceOnUse">
<stop stop-color="#28067E"/>
<stop offset="0.16" stop-color="#2D0A83"/>
<stop offset="0.35" stop-color="#3A1691"/>
<stop offset="0.55" stop-color="#502AA9"/>
<stop offset="0.77" stop-color="#6E46CA"/>
<stop offset="0.99" stop-color="#956AF4"/>
<stop offset="1" stop-color="#986CF7"/>
</linearGradient>
<linearGradient id="paint7_linear" x1="43272.5" y1="20712.3" x2="43272.5" y2="22725.7" gradientUnits="userSpaceOnUse">
<stop stop-color="#DF59A5"/>
<stop offset="1" stop-color="#A426F2"/>
</linearGradient>
<linearGradient id="paint8_linear" x1="9724.64" y1="18973.5" x2="11636.3" y2="23270.2" gradientUnits="userSpaceOnUse">
<stop stop-color="#28067E"/>
<stop offset="0.16" stop-color="#2D0A83"/>
<stop offset="0.35" stop-color="#3A1691"/>
<stop offset="0.55" stop-color="#502AA9"/>
<stop offset="0.77" stop-color="#6E46CA"/>
<stop offset="0.99" stop-color="#956AF4"/>
<stop offset="1" stop-color="#986CF7"/>
</linearGradient>
<linearGradient id="paint9_linear" x1="23568.8" y1="37083.6" x2="27852.9" y2="48930.8" gradientUnits="userSpaceOnUse">
<stop stop-color="#28067E"/>
<stop offset="0.16" stop-color="#2D0A83"/>
<stop offset="0.35" stop-color="#3A1691"/>
<stop offset="0.55" stop-color="#502AA9"/>
<stop offset="0.77" stop-color="#6E46CA"/>
<stop offset="0.99" stop-color="#956AF4"/>
<stop offset="1" stop-color="#986CF7"/>
</linearGradient>
<linearGradient id="paint10_linear" x1="77050.6" y1="1069.74" x2="77053" y2="1376.87" gradientUnits="userSpaceOnUse">
<stop stop-color="#28067E"/>
<stop offset="0.16" stop-color="#2D0A83"/>
<stop offset="0.35" stop-color="#3A1691"/>
<stop offset="0.55" stop-color="#502AA9"/>
<stop offset="0.77" stop-color="#6E46CA"/>
<stop offset="0.99" stop-color="#956AF4"/>
<stop offset="1" stop-color="#986CF7"/>
</linearGradient>
<linearGradient id="paint11_linear" x1="40809" y1="1044.05" x2="40813.9" y2="1351.12" gradientUnits="userSpaceOnUse">
<stop stop-color="#28067E"/>
<stop offset="0.16" stop-color="#2D0A83"/>
<stop offset="0.35" stop-color="#3A1691"/>
<stop offset="0.55" stop-color="#502AA9"/>
<stop offset="0.77" stop-color="#6E46CA"/>
<stop offset="0.99" stop-color="#956AF4"/>
<stop offset="1" stop-color="#986CF7"/>
</linearGradient>
<linearGradient id="paint12_linear" x1="1392.15" y1="28220.3" x2="2113.74" y2="28284.1" gradientUnits="userSpaceOnUse">
<stop stop-color="#28067E"/>
<stop offset="0.16" stop-color="#2D0A83"/>
<stop offset="0.35" stop-color="#3A1691"/>
<stop offset="0.55" stop-color="#502AA9"/>
<stop offset="0.77" stop-color="#6E46CA"/>
<stop offset="0.99" stop-color="#956AF4"/>
<stop offset="1" stop-color="#986CF7"/>
</linearGradient>
<linearGradient id="paint13_linear" x1="1495.9" y1="26731.4" x2="2217.37" y2="26797" gradientUnits="userSpaceOnUse">
<stop stop-color="#28067E"/>
<stop offset="0.16" stop-color="#2D0A83"/>
<stop offset="0.35" stop-color="#3A1691"/>
<stop offset="0.55" stop-color="#502AA9"/>
<stop offset="0.77" stop-color="#6E46CA"/>
<stop offset="0.99" stop-color="#956AF4"/>
<stop offset="1" stop-color="#986CF7"/>
</linearGradient>
<linearGradient id="paint14_linear" x1="1624.94" y1="25809.8" x2="2346.41" y2="25875.4" gradientUnits="userSpaceOnUse">
<stop stop-color="#28067E"/>
<stop offset="0.16" stop-color="#2D0A83"/>
<stop offset="0.35" stop-color="#3A1691"/>
<stop offset="0.55" stop-color="#502AA9"/>
<stop offset="0.77" stop-color="#6E46CA"/>
<stop offset="0.99" stop-color="#956AF4"/>
<stop offset="1" stop-color="#986CF7"/>
</linearGradient>
<linearGradient id="paint15_linear" x1="69410.7" y1="1111.75" x2="69413.3" y2="1418.84" gradientUnits="userSpaceOnUse">
<stop stop-color="#28067E"/>
<stop offset="0.16" stop-color="#2D0A83"/>
<stop offset="0.35" stop-color="#3A1691"/>
<stop offset="0.55" stop-color="#502AA9"/>
<stop offset="0.77" stop-color="#6E46CA"/>
<stop offset="0.99" stop-color="#956AF4"/>
<stop offset="1" stop-color="#986CF7"/>
</linearGradient>
<linearGradient id="paint16_linear" x1="59960" y1="11417.1" x2="60166.8" y2="15593.6" gradientUnits="userSpaceOnUse">
<stop stop-color="#28067E"/>
<stop offset="0.16" stop-color="#2D0A83"/>
<stop offset="0.35" stop-color="#3A1691"/>
<stop offset="0.55" stop-color="#502AA9"/>
<stop offset="0.77" stop-color="#6E46CA"/>
<stop offset="0.99" stop-color="#956AF4"/>
<stop offset="1" stop-color="#986CF7"/>
</linearGradient>
<linearGradient id="paint17_linear" x1="14485.7" y1="14870.4" x2="19461.3" y2="16383.8" gradientUnits="userSpaceOnUse">
<stop stop-color="#28067E"/>
<stop offset="0.16" stop-color="#2D0A83"/>
<stop offset="0.35" stop-color="#3A1691"/>
<stop offset="0.55" stop-color="#502AA9"/>
<stop offset="0.77" stop-color="#6E46CA"/>
<stop offset="0.99" stop-color="#956AF4"/>
<stop offset="1" stop-color="#986CF7"/>
</linearGradient>
<linearGradient id="paint18_linear" x1="142.962" y1="166.957" x2="181.455" y2="166.957" gradientUnits="userSpaceOnUse">
<stop stop-color="white"/>
<stop offset="0.1" stop-color="#FDFCFF" stop-opacity="0.98"/>
<stop offset="0.23" stop-color="#F7F4FE" stop-opacity="0.92"/>
<stop offset="0.36" stop-color="#EEE6FE" stop-opacity="0.83"/>
<stop offset="0.5" stop-color="#E0D3FD" stop-opacity="0.7"/>
<stop offset="0.65" stop-color="#CFBAFB" stop-opacity="0.53"/>
<stop offset="0.8" stop-color="#BA9CFA" stop-opacity="0.33"/>
<stop offset="0.95" stop-color="#A17AF8" stop-opacity="0.09"/>
<stop offset="1" stop-color="#986CF7" stop-opacity="0"/>
</linearGradient>
<linearGradient id="paint19_linear" x1="14714.7" y1="14370.6" x2="19690.8" y2="15884" gradientUnits="userSpaceOnUse">
<stop stop-color="#28067E"/>
<stop offset="0.16" stop-color="#2D0A83"/>
<stop offset="0.35" stop-color="#3A1691"/>
<stop offset="0.55" stop-color="#502AA9"/>
<stop offset="0.77" stop-color="#6E46CA"/>
<stop offset="0.99" stop-color="#956AF4"/>
<stop offset="1" stop-color="#986CF7"/>
</linearGradient>
<linearGradient id="paint20_linear" x1="87267" y1="28001.6" x2="88888.4" y2="36299.6" gradientUnits="userSpaceOnUse">
<stop stop-color="#28067E"/>
<stop offset="0.16" stop-color="#2D0A83"/>
<stop offset="0.35" stop-color="#3A1691"/>
<stop offset="0.55" stop-color="#502AA9"/>
<stop offset="0.77" stop-color="#6E46CA"/>
<stop offset="0.99" stop-color="#956AF4"/>
<stop offset="1" stop-color="#986CF7"/>
</linearGradient>
</defs>
</svg>
